<svg width="512" height="512" viewBox="0 0 512 512" xmlns="http://www.w3.org/2000/svg">
  <!-- Shiden Assets アイコン（正本）。docs/SHIDEN_ICON_GUIDE.md 準拠:
       稲妻マスター＋パターンB（右下の白フチ小モチーフ）。モチーフは「コイン（¥）」＝資産。
       白フチは SW=60 × S=0.42 ≒ 12.6px で稲妻の白フチ基準(12.5px)に一致。 -->
  <defs>
    <radialGradient id="bgr" cx="0.5" cy="0.3" r="1.0">
      <stop offset="0" stop-color="#4d357e"/><stop offset="0.55" stop-color="#35245c"/><stop offset="1" stop-color="#1d1136"/>
    </radialGradient>
    <linearGradient id="bolt" x1="0" y1="0" x2="0" y2="1">
      <stop offset="0" stop-color="#fde047"/><stop offset="0.5" stop-color="#f59e0b"/><stop offset="1" stop-color="#d97706"/>
    </linearGradient>
    <linearGradient id="edge" x1="0" y1="0" x2="1" y2="1">
      <stop offset="0" stop-color="#a855f7"/><stop offset="1" stop-color="#6d28d9"/>
    </linearGradient>
    <!-- コインの塗り：無彩色（淡い紫グレー。ガイド§13「モチーフは無彩色」準拠） -->
    <linearGradient id="coin" x1="0" y1="0" x2="0" y2="1">
      <stop offset="0" stop-color="#f0edf7"/><stop offset="1" stop-color="#b9b0cf"/>
    </linearGradient>
    <filter id="sh" x="-30%" y="-30%" width="160%" height="160%"><feDropShadow dx="0" dy="10" stdDeviation="18" flood-color="#7c3aed" flood-opacity="0.6"/></filter>
    <filter id="hsh" x="-50%" y="-50%" width="200%" height="200%"><feDropShadow dx="0" dy="4" stdDeviation="8" flood-color="#000" flood-opacity="0.35"/></filter>
  </defs>
  <rect width="512" height="512" fill="url(#bgr)"/>
  <!-- 稲妻（主役・共通。変更禁止） -->
  <g transform="translate(48 56) scale(0.78)" filter="url(#sh)">
    <path d="M296 36 L138 296 L238 296 L198 476 L396 208 L286 208 L352 36 Z" fill="none" stroke="#f5f2fa" stroke-width="72" stroke-linejoin="round"/>
    <path d="M296 36 L138 296 L238 296 L198 476 L396 208 L286 208 L352 36 Z" fill="url(#bolt)" stroke="url(#edge)" stroke-width="40" stroke-linejoin="round"/>
  </g>
  <!-- モチーフ（右下・白フチ付きコイン。¥は暗紫のストロークで刻印） -->
  <g transform="translate(391 401) scale(0.42) translate(-256 -256)" filter="url(#hsh)">
    <circle cx="256" cy="256" r="170" fill="none" stroke="#fff" stroke-width="60"/>
    <circle cx="256" cy="256" r="170" fill="url(#coin)"/>
    <g fill="none" stroke="#3b2b63" stroke-width="36" stroke-linecap="round">
      <path d="M186 158 L256 262"/>
      <path d="M326 158 L256 262"/>
      <path d="M256 262 V356"/>
      <path d="M194 284 H318"/>
      <path d="M194 324 H318"/>
    </g>
  </g>
</svg>
